<svg xmlns="http://www.w3.org/2000/svg" version="1.1" xmlns:xlink="http://www.w3.org/1999/xlink" xmlns:svgjs="http://svgjs.com/svgjs" width="1440" height="560" preserveAspectRatio="none" viewBox="0 0 1440 560"><g mask="url(&quot;#SvgjsMask1047&quot;)" fill="none"><path d="M1464 560L0 560 L0 496.24Q74.86 499.1, 72 573.96Q18.58 448.55, 144 395.13Q317.07 448.2, 264 621.28Q216.39 501.67, 336 454.06Q340.91 386.97, 408 391.88Q544.67 456.55, 480 593.22Q457.14 498.37, 552 475.51Q559.18 410.69, 624 417.88Q671.16 345.04, 744 392.21Q800.56 376.76, 816 433.32Q879.96 425.28, 888 489.24Q934.19 463.43, 960 509.62Q1037.49 467.12, 1080 544.61Q1117.34 461.95, 1200 499.29Q1197.81 425.1, 1272 422.91Q1324.42 355.34, 1392 407.76Q1448.47 392.24, 1464 448.71z" fill="rgba(130, 130, 130, 0.13)"></path></g><defs><mask id="SvgjsMask1047"><rect width="1440" height="560" fill="#ffffff"></rect></mask></defs></svg>