<svg xmlns="http://www.w3.org/2000/svg" version="1.1" xmlns:xlink="http://www.w3.org/1999/xlink" xmlns:svgjs="http://svgjs.com/svgjs" width="1440" height="560" preserveAspectRatio="none" viewBox="0 0 1440 560"><g mask="url(&quot;#SvgjsMask1064&quot;)" fill="none"><path d="M -204.83872647841577,272 C -108.84,287.6 83.16,382.2 275.16127352158423,350 C 467.16,317.8 563.16,124 755.1612735215842,111 C 947.16,98 1043.16,264.6 1235.1612735215842,285 C 1427.16,305.4 1674.19,183.8 1715.1612735215842,213 C 1756.13,242.2 1495.03,387.4 1440,431" stroke="rgba(139, 144, 148, 0.14)" stroke-width="2"></path><path d="M -391.4691625097256,192 C -295.47,220.4 -103.47,349.6 88.53083749027437,334 C 280.53,318.4 376.53,92.4 568.5308374902744,114 C 760.53,135.6 856.53,443 1048.5308374902743,442 C 1240.53,441 1450.24,120.8 1528.5308374902743,109 C 1606.82,97.2 1457.71,328.2 1440,383" stroke="rgba(139, 144, 148, 0.14)" stroke-width="2"></path><path d="M -405.240198860192,373 C -309.24,347 -117.24,247.8 74.75980113980803,243 C 266.76,238.2 362.76,389.2 554.759801139808,349 C 746.76,308.8 842.76,25.4 1034.7598011398081,42 C 1226.76,58.6 1433.71,425.2 1514.7598011398081,432 C 1595.81,438.8 1454.95,147.2 1440,76" stroke="rgba(139, 144, 148, 0.14)" stroke-width="2"></path><path d="M -755.5967046194758,181 C -659.6,211.4 -467.6,352.4 -275.5967046194758,333 C -83.6,313.6 12.4,73 204.40329538052418,84 C 396.4,95 492.4,379.8 684.4032953805242,388 C 876.4,396.2 1013.28,115 1164.4032953805242,125 C 1315.52,135 1384.88,375.4 1440,438" stroke="rgba(139, 144, 148, 0.14)" stroke-width="2"></path><path d="M -468.0420309094043,494 C -372.04,426.8 -180.04,187 11.95796909059574,158 C 203.96,129 299.96,325.2 491.9579690905957,349 C 683.96,372.8 779.96,262.8 971.9579690905957,277 C 1163.96,291.2 1358.35,437.8 1451.9579690905957,420 C 1545.57,402.2 1442.39,234.4 1440,188" stroke="rgba(139, 144, 148, 0.14)" stroke-width="2"></path><path d="M -566.9588132159482,339 C -470.96,291.4 -278.96,82.4 -86.95881321594818,101 C 105.04,119.6 201.04,402.6 393.04118678405183,432 C 585.04,461.4 681.04,273.6 873.0411867840518,248 C 1065.04,222.4 1239.65,331.8 1353.041186784052,304 C 1466.43,276.2 1422.61,148 1440,109" stroke="rgba(139, 144, 148, 0.14)" stroke-width="2"></path></g><defs><mask id="SvgjsMask1064"><rect width="1440" height="560" fill="#ffffff"></rect></mask></defs></svg>