<svg xmlns="http://www.w3.org/2000/svg" version="1.1" xmlns:xlink="http://www.w3.org/1999/xlink" xmlns:svgjs="http://svgjs.com/svgjs" width="1440" height="560" preserveAspectRatio="none" viewBox="0 0 1440 560"><g mask="url(&quot;#SvgjsMask1003&quot;)" fill="none"><path d="M326.51 661.15C524.97 632.22 629.22 166.25 955.38 163.09 1281.55 159.93 1422.56 313.23 1584.26 314.29" stroke="rgba(20, 85, 135, 0.23)" stroke-width="2"></path><path d="M812.9 664.26C939.09 649.9 983.31 391.94 1227.5 370.68 1471.69 349.42 1523.85 148.58 1642.1 141.08" stroke="rgba(20, 85, 135, 0.23)" stroke-width="2"></path><path d="M745.89 563.02C837.78 543.68 776.34 326.96 1018.67 304.82 1261 282.68 1412.36 43.18 1564.24 36.02" stroke="rgba(20, 85, 135, 0.23)" stroke-width="2"></path><path d="M437.95 667.39C610.76 656.99 737.47 338.1 1046.68 337.24 1355.88 336.38 1500.67 448.78 1655.4 449.24" stroke="rgba(20, 85, 135, 0.23)" stroke-width="2"></path><path d="M366.42 592.79C493.25 568.88 546.86 252.44 750.97 248.37 955.08 244.3 943.25 318.37 1135.53 318.37 1327.8 318.37 1422.36 248.65 1520.08 248.37" stroke="rgba(20, 85, 135, 0.23)" stroke-width="2"></path></g><defs><mask id="SvgjsMask1003"><rect width="1440" height="560" fill="#ffffff"></rect></mask></defs></svg>