<?xml version="1.0" standalone="no"?><svg xmlns="http://www.w3.org/2000/svg" viewBox="0 0 1440 320"><path fill="#145587" fill-opacity="1" d="M0,160L30,138.7C60,117,120,75,180,101.3C240,128,300,224,360,229.3C420,235,480,149,540,101.3C600,53,660,43,720,48C780,53,840,75,900,74.7C960,75,1020,53,1080,58.7C1140,64,1200,96,1260,106.7C1320,117,1380,107,1410,101.3L1440,96L1440,0L1410,0C1380,0,1320,0,1260,0C1200,0,1140,0,1080,0C1020,0,960,0,900,0C840,0,780,0,720,0C660,0,600,0,540,0C480,0,420,0,360,0C300,0,240,0,180,0C120,0,60,0,30,0L0,0Z"></path></svg>